<?xml version="1.0" encoding="UTF-8"?>
<!DOCTYPE svg PUBLIC "-//W3C//DTD SVG 1.1//EN" "http://www.w3.org/Graphics/SVG/1.1/DTD/svg11.dtd">
<svg xmlns="http://www.w3.org/2000/svg" version="1.1" width="728px" height="159px" style="shape-rendering:geometricPrecision; text-rendering:geometricPrecision; image-rendering:optimizeQuality; fill-rule:evenodd; clip-rule:evenodd" xmlns:xlink="http://www.w3.org/1999/xlink">
<g><path style="opacity:0.575" fill="#2469a5" d="M 86.5,-0.5 C 88.8333,-0.5 91.1667,-0.5 93.5,-0.5C 99.7308,1.22505 105.731,3.55838 111.5,6.5C 103.743,3.72804 95.7433,1.8947 87.5,1C 86.944,0.617425 86.6107,0.117425 86.5,-0.5 Z"/></g>
<g><path style="opacity:0.997" fill="#3b83c0" d="M 65.5,-0.5 C 72.5,-0.5 79.5,-0.5 86.5,-0.5C 86.6107,0.117425 86.944,0.617425 87.5,1C 95.7433,1.8947 103.743,3.72804 111.5,6.5C 110.776,8.73063 110.776,11.2306 111.5,14C 109.243,13.5629 106.91,13.0629 104.5,12.5C 104.167,12.5 103.833,12.5 103.5,12.5C 102.07,11.4625 100.403,10.7959 98.5,10.5C 93.0747,7.20605 87.2414,4.87272 81,3.5C 75.7068,4.11301 75.2068,5.94634 79.5,9C 74.6486,9.1745 69.9819,9.6745 65.5,10.5C 61.4432,10.8478 57.4432,11.5145 53.5,12.5C 54.0577,11.2101 55.0577,10.3768 56.5,10C 55.2267,7.20057 53.2267,5.36723 50.5,4.5C 55.4419,2.63046 60.4419,0.963795 65.5,-0.5 Z"/></g>
<g><path style="opacity:0.997" fill="#478fcc" d="M 50.5,4.5 C 53.2267,5.36723 55.2267,7.20057 56.5,10C 55.0577,10.3768 54.0577,11.2101 53.5,12.5C 52.609,13.1098 51.609,13.4431 50.5,13.5C 47.8333,13.5 45.1667,13.5 42.5,13.5C 39.1066,13.0617 36.1066,13.8951 33.5,16C 35.6248,18.236 37.2915,20.736 38.5,23.5C 36.823,25.5398 35.1563,27.5398 33.5,29.5C 35.1206,26.9609 34.454,25.7942 31.5,26C 30.9535,26.9246 30.2868,27.7579 29.5,28.5C 27.4824,26.6499 25.6491,24.6499 24,22.5C 23.3292,23.2524 22.4959,23.5858 21.5,23.5C 29.6188,14.9317 39.2855,8.59841 50.5,4.5 Z"/></g>
<g><path style="opacity:1" fill="#256ca9" d="M 98.5,10.5 C 100.094,11.983 101.76,13.483 103.5,15C 103.167,15.3333 102.833,15.6667 102.5,16C 103.496,18.3163 104.496,20.6496 105.5,23C 105.164,24.0299 104.497,24.5299 103.5,24.5C 92.5496,15.293 79.883,10.6264 65.5,10.5C 69.9819,9.6745 74.6486,9.1745 79.5,9C 75.2068,5.94634 75.7068,4.11301 81,3.5C 87.2414,4.87272 93.0747,7.20605 98.5,10.5 Z"/></g>
<g><path style="opacity:0.995" fill="#246ba8" d="M 111.5,6.5 C 121.855,10.5214 130.522,16.8548 137.5,25.5C 137.31,29.2946 136.31,32.6279 134.5,35.5C 126.893,26.2303 117.56,19.2303 106.5,14.5C 106.158,13.6618 105.492,13.3284 104.5,13.5C 104.5,13.1667 104.5,12.8333 104.5,12.5C 106.91,13.0629 109.243,13.5629 111.5,14C 110.776,11.2306 110.776,8.73063 111.5,6.5 Z"/></g>
<g><path style="opacity:1" fill="#377fbc" d="M 42.5,13.5 C 44.9308,15.49 47.2641,17.6566 49.5,20C 46.3054,20.1805 43.3054,20.6805 40.5,21.5C 40.1667,22.5 39.5,23.1667 38.5,23.5C 37.2915,20.736 35.6248,18.236 33.5,16C 36.1066,13.8951 39.1066,13.0617 42.5,13.5 Z"/></g>
<g><path style="opacity:1" fill="#276fac" d="M 42.5,13.5 C 45.1667,13.5 47.8333,13.5 50.5,13.5C 53.5424,14.9099 56.7091,16.2432 60,17.5C 62.7135,21.0916 65.5468,24.5916 68.5,28C 66.8925,27.9813 65.2259,27.8146 63.5,27.5C 56.2791,23.8722 48.6125,21.8722 40.5,21.5C 43.3054,20.6805 46.3054,20.1805 49.5,20C 47.2641,17.6566 44.9308,15.49 42.5,13.5 Z"/></g>
<g><path style="opacity:0.927" fill="#063a68" d="M 197.5,26.5 C 214.744,26.1747 231.91,26.5081 249,27.5C 251.364,31.4738 250.864,34.9738 247.5,38C 232.167,38.3333 216.833,38.6667 201.5,39C 193.482,42.8723 191.649,48.7056 196,56.5C 196.903,57.7014 198.069,58.5348 199.5,59C 210.762,60.2675 222.095,60.9341 233.5,61C 246.866,65.8943 252.366,75.3943 250,89.5C 247.905,97.927 242.739,103.427 234.5,106C 217.5,106.667 200.5,106.667 183.5,106C 181.522,103.503 181.022,100.669 182,97.5C 182.5,96.3333 183.333,95.5 184.5,95C 199.833,94.6667 215.167,94.3333 230.5,94C 239.807,88.1275 240.474,81.4608 232.5,74C 221.238,72.7325 209.905,72.0659 198.5,72C 184.045,66.9369 178.545,56.7702 182,41.5C 185.106,34.2253 190.272,29.2253 197.5,26.5 Z"/></g>
<g><path style="opacity:0.915" fill="#063a68" d="M 305.5,26.5 C 317.838,26.3335 330.171,26.5001 342.5,27C 345.439,31.018 345.105,34.6847 341.5,38C 331.167,38.3333 320.833,38.6667 310.5,39C 292.409,44.676 285.243,56.8427 289,75.5C 292.167,84 298,89.8333 306.5,93C 318.11,94.2461 329.776,94.9127 341.5,95C 345.105,98.3153 345.439,101.982 342.5,106C 330.167,106.667 317.833,106.667 305.5,106C 281.983,97.8159 272.149,81.3159 276,56.5C 280.683,41.3174 290.517,31.3174 305.5,26.5 Z"/></g>
<g><path style="opacity:0.926" fill="#063a68" d="M 384.5,26.5 C 401.744,26.1747 418.91,26.5081 436,27.5C 438.364,31.4738 437.864,34.9738 434.5,38C 419.167,38.3333 403.833,38.6667 388.5,39C 380.482,42.8723 378.649,48.7056 383,56.5C 383.903,57.7014 385.069,58.5348 386.5,59C 397.762,60.2675 409.095,60.9341 420.5,61C 433.866,65.8943 439.366,75.3943 437,89.5C 434.905,97.927 429.739,103.427 421.5,106C 404.5,106.667 387.5,106.667 370.5,106C 368.522,103.503 368.022,100.669 369,97.5C 369.5,96.3333 370.333,95.5 371.5,95C 386.833,94.6667 402.167,94.3333 417.5,94C 426.807,88.1275 427.474,81.4608 419.5,74C 408.238,72.7325 396.905,72.0659 385.5,72C 370.959,66.7526 365.459,56.5859 369,41.5C 372.106,34.2253 377.272,29.2253 384.5,26.5 Z"/></g>
<g><path style="opacity:0.946" fill="#063a68" d="M 464.5,26.5 C 468.287,25.8144 471.454,26.8144 474,29.5C 474.5,51.1641 474.667,72.8308 474.5,94.5C 492.503,94.3334 510.503,94.5001 528.5,95C 532.105,98.3153 532.439,101.982 529.5,106C 507.833,106.667 486.167,106.667 464.5,106C 464,105.5 463.5,105 463,104.5C 462.333,79.1667 462.333,53.8333 463,28.5C 463.717,27.9558 464.217,27.2891 464.5,26.5 Z"/></g>
<g><path style="opacity:0.923" fill="#063a68" d="M 587.5,26.5 C 593.007,25.1053 596.507,27.1053 598,32.5C 607,54.1667 616,75.8333 625,97.5C 625.847,100.588 625.347,103.421 623.5,106C 601.833,106.667 580.167,106.667 558.5,106C 556.496,103.159 555.996,99.9926 557,96.5C 566.518,72.742 576.685,49.4087 587.5,26.5 Z M 590.5,48.5 C 597.003,63.3179 603.337,78.3179 609.5,93.5C 596.846,94.666 584.18,94.8326 571.5,94C 578.323,79.0292 584.656,63.8625 590.5,48.5 Z"/></g>
<g><path style="opacity:0.943" fill="#063a68" d="M 652.5,26.5 C 669.503,26.3334 686.503,26.5001 703.5,27C 717.345,33.1972 722.178,43.6972 718,58.5C 716.752,61.579 714.919,64.2457 712.5,66.5C 722.065,78.5741 721.732,90.4074 711.5,102C 709.112,103.861 706.446,105.194 703.5,106C 686.5,106.667 669.5,106.667 652.5,106C 652,105.5 651.5,105 651,104.5C 650.333,79.1667 650.333,53.8333 651,28.5C 651.717,27.9558 652.217,27.2891 652.5,26.5 Z M 662.5,38.5 C 674.838,38.3335 687.171,38.5001 699.5,39C 706.819,42.7987 708.652,48.2987 705,55.5C 703.363,57.8102 701.196,59.3102 698.5,60C 686.505,60.4999 674.505,60.6665 662.5,60.5C 662.5,53.1667 662.5,45.8333 662.5,38.5 Z M 662.5,72.5 C 674.505,72.3335 686.505,72.5001 698.5,73C 705.731,75.9599 708.231,81.1265 706,88.5C 704.127,90.7089 701.96,92.5422 699.5,94C 687.171,94.4999 674.838,94.6665 662.5,94.5C 662.5,87.1667 662.5,79.8333 662.5,72.5 Z"/></g>
<g><path style="opacity:1" fill="#579fdc" d="M 33.5,29.5 C 33.3404,31.153 32.6737,32.4863 31.5,33.5C 30.8333,33.5 30.5,33.8333 30.5,34.5C 29.8333,34.8333 29.1667,35.1667 28.5,35.5C 23.9637,34.198 19.297,34.198 14.5,35.5C 13.913,34.7666 13.913,33.7666 14.5,32.5C 16.4821,29.1897 18.8154,26.1897 21.5,23.5C 22.4959,23.5858 23.3292,23.2524 24,22.5C 25.6491,24.6499 27.4824,26.6499 29.5,28.5C 30.2868,27.7579 30.9535,26.9246 31.5,26C 34.454,25.7942 35.1206,26.9609 33.5,29.5 Z"/></g>
<g><path style="opacity:0.997" fill="#19619e" d="M 53.5,12.5 C 58.5912,15.2086 63.9245,17.7086 69.5,20C 71.7472,21.2775 73.7472,22.7775 75.5,24.5C 76.3248,28.5126 78.9915,31.346 83.5,33C 86.7303,37.9245 90.5636,42.4245 95,46.5C 95.5908,47.4835 95.2575,48.1501 94,48.5C 91.9409,46.9304 89.7742,45.597 87.5,44.5C 80.0319,38.0239 72.0319,32.3572 63.5,27.5C 65.2259,27.8146 66.8925,27.9813 68.5,28C 65.5468,24.5916 62.7135,21.0916 60,17.5C 56.7091,16.2432 53.5424,14.9099 50.5,13.5C 51.609,13.4431 52.609,13.1098 53.5,12.5 Z"/></g>
<g><path style="opacity:1" fill="#115895" d="M 98.5,10.5 C 100.403,10.7959 102.07,11.4625 103.5,12.5C 103.5,13.1667 103.833,13.5 104.5,13.5C 104.842,14.3382 105.508,14.6716 106.5,14.5C 111.13,19.6313 115.963,24.6313 121,29.5C 123.421,33.0709 125.587,36.7375 127.5,40.5C 128.013,44.8795 128.847,49.2128 130,53.5C 133.016,62.7837 136.849,71.4504 141.5,79.5C 142.43,86.7771 142.764,94.1104 142.5,101.5C 141.833,100.833 141.167,100.167 140.5,99.5C 136.395,95.898 132.395,92.0647 128.5,88C 120.71,84.0019 113.377,79.5019 106.5,74.5C 109.049,74.3874 111.382,75.0541 113.5,76.5C 113.833,76.3333 114.167,76.1667 114.5,76C 113.934,75.0053 113.267,74.172 112.5,73.5C 112.167,73.5 111.833,73.5 111.5,73.5C 111.5,72.8333 111.167,72.5 110.5,72.5C 109.191,69.2223 107.358,66.2223 105,63.5C 99.3288,56.9964 93.4955,50.663 87.5,44.5C 89.7742,45.597 91.9409,46.9304 94,48.5C 95.2575,48.1501 95.5908,47.4835 95,46.5C 90.5636,42.4245 86.7303,37.9245 83.5,33C 78.9915,31.346 76.3248,28.5126 75.5,24.5C 100.365,40.878 119.198,62.5446 132,89.5C 131.781,63.7312 122.281,42.0646 103.5,24.5C 104.497,24.5299 105.164,24.0299 105.5,23C 104.496,20.6496 103.496,18.3163 102.5,16C 102.833,15.6667 103.167,15.3333 103.5,15C 101.76,13.483 100.094,11.983 98.5,10.5 Z"/></g>
<g><path style="opacity:1" fill="#3981be" d="M 14.5,32.5 C 13.913,33.7666 13.913,34.7666 14.5,35.5C 19.297,34.198 23.9637,34.198 28.5,35.5C 26.8008,35.3398 25.1341,35.5065 23.5,36C 26.0955,39.3052 29.4288,41.6385 33.5,43C 31.8876,43.7203 30.3876,43.5536 29,42.5C 28.5357,43.0944 28.369,43.7611 28.5,44.5C 25.5118,42.727 22.1785,42.0604 18.5,42.5C 18.5,43.5 18.5,44.5 18.5,45.5C 16.9519,45.1788 16.2852,44.1788 16.5,42.5C 14.0072,42.6709 12.1739,41.6709 11,39.5C 10.5831,40.756 9.74975,41.4226 8.5,41.5C 9.76933,37.9464 11.7693,34.9464 14.5,32.5 Z"/></g>
<g><path style="opacity:1" fill="#155b97" d="M 137.5,25.5 C 143.066,30.957 147.399,37.2904 150.5,44.5C 151.17,50.1623 150.836,55.8289 149.5,61.5C 150.579,65.7942 151.079,70.1275 151,74.5C 150.151,69.9544 148.985,65.6211 147.5,61.5C 144.696,52.1012 140.363,43.4345 134.5,35.5C 136.31,32.6279 137.31,29.2946 137.5,25.5 Z"/></g>
<g><path style="opacity:1" fill="#276fac" d="M 30.5,34.5 C 38.4596,39.9203 46.7929,45.0869 55.5,50C 56.6956,50.6543 56.6956,51.1543 55.5,51.5C 53.9291,50.6906 52.2624,50.3573 50.5,50.5C 43.7284,47.7236 36.7284,45.7236 29.5,44.5C 29.5,46.5 29.5,48.5 29.5,50.5C 28.5386,48.7354 28.2053,46.7354 28.5,44.5C 28.369,43.7611 28.5357,43.0944 29,42.5C 30.3876,43.5536 31.8876,43.7203 33.5,43C 29.4288,41.6385 26.0955,39.3052 23.5,36C 25.1341,35.5065 26.8008,35.3398 28.5,35.5C 29.1667,35.1667 29.8333,34.8333 30.5,34.5 Z"/></g>
<g><path style="opacity:1" fill="#135b98" d="M 42.5,38.5 C 51.0161,40.763 59.0161,44.0963 66.5,48.5C 76.9363,55.2256 87.6029,61.7256 98.5,68C 99.2524,68.6708 99.5858,69.5041 99.5,70.5C 80.5413,59.5268 61.5413,48.8601 42.5,38.5 Z"/></g>
<g><path style="opacity:1" fill="#68afec" d="M 8.5,42.5 C 9.60761,45.8021 10.9409,49.1354 12.5,52.5C 11.7542,53.7362 11.4208,55.0695 11.5,56.5C 9.03966,60.6441 8.37299,64.9774 9.5,69.5C 8.65608,73.0991 8.32274,76.7657 8.5,80.5C 7.6888,84.6604 7.6888,88.9937 8.5,93.5C 7.45883,99.2315 6.95883,104.898 7,110.5C 6.3918,108.934 5.55847,107.6 4.5,106.5C 2.52586,101.933 0.859194,97.2662 -0.5,92.5C -0.5,84.8333 -0.5,77.1667 -0.5,69.5C 1.59104,64.8094 2.92438,59.8094 3.5,54.5C 4.0966,49.9831 5.76326,45.9831 8.5,42.5 Z"/></g>
<g><path style="opacity:0.999" fill="#0a4f8a" d="M 127.5,40.5 C 135.31,52.2547 139.976,65.2547 141.5,79.5C 136.849,71.4504 133.016,62.7837 130,53.5C 128.847,49.2128 128.013,44.8795 127.5,40.5 Z"/></g>
<g><path style="opacity:0.987" fill="#0e548f" d="M 150.5,44.5 C 156.289,55.0075 158.622,66.3408 157.5,78.5C 158.563,92.2429 155.563,104.91 148.5,116.5C 148.795,114.265 148.461,112.265 147.5,110.5C 146.234,107.245 144.568,104.245 142.5,101.5C 143.824,102.85 144.824,102.683 145.5,101C 148.696,87.9911 149.363,74.8244 147.5,61.5C 148.985,65.6211 150.151,69.9544 151,74.5C 151.079,70.1275 150.579,65.7942 149.5,61.5C 150.836,55.8289 151.17,50.1623 150.5,44.5 Z"/></g>
<g><path style="opacity:1" fill="#5fa7e4" d="M 28.5,44.5 C 28.2053,46.7354 28.5386,48.7354 29.5,50.5C 30.4345,51.5676 30.7678,52.901 30.5,54.5C 30.3573,56.2624 30.6906,57.9291 31.5,59.5C 31.3333,59.8333 31.1667,60.1667 31,60.5C 25.4079,56.6256 21.2412,51.6256 18.5,45.5C 18.5,44.5 18.5,43.5 18.5,42.5C 22.1785,42.0604 25.5118,42.727 28.5,44.5 Z"/></g>
<g><path style="opacity:1" fill="#549cd9" d="M 18.5,45.5 C 21.2412,51.6256 25.4079,56.6256 31,60.5C 31.1667,60.1667 31.3333,59.8333 31.5,59.5C 30.6906,57.9291 30.3573,56.2624 30.5,54.5C 32.1496,57.7991 33.8162,61.1325 35.5,64.5C 34.5041,64.4142 33.6708,64.7476 33,65.5C 29.7466,63.4569 26.5799,61.2902 23.5,59C 21.3496,57.5886 19.0163,56.7553 16.5,56.5C 16.7373,57.791 16.404,58.791 15.5,59.5C 15.205,57.5767 14.3717,55.9101 13,54.5C 12.7216,55.4158 12.2216,56.0825 11.5,56.5C 11.4208,55.0695 11.7542,53.7362 12.5,52.5C 10.9409,49.1354 9.60761,45.8021 8.5,42.5C 8.5,42.1667 8.5,41.8333 8.5,41.5C 9.74975,41.4226 10.5831,40.756 11,39.5C 12.1739,41.6709 14.0072,42.6709 16.5,42.5C 16.2852,44.1788 16.9519,45.1788 18.5,45.5 Z"/></g>
<g><path style="opacity:0.322" fill="#3a80bd" d="M 11.5,56.5 C 10.6734,60.8072 10.0067,65.1405 9.5,69.5C 8.37299,64.9774 9.03966,60.6441 11.5,56.5 Z"/></g>
<g><path style="opacity:1" fill="#0c538f" d="M 66.5,48.5 C 71.0623,49.7809 75.3957,51.6142 79.5,54C 89.8887,60.1894 100.222,66.3561 110.5,72.5C 111.167,72.5 111.5,72.8333 111.5,73.5C 111.833,74.8333 112.167,74.8333 112.5,73.5C 113.267,74.172 113.934,75.0053 114.5,76C 114.167,76.1667 113.833,76.3333 113.5,76.5C 111.382,75.0541 109.049,74.3874 106.5,74.5C 104.202,73.1715 101.868,71.8382 99.5,70.5C 99.5858,69.5041 99.2524,68.6708 98.5,68C 87.6029,61.7256 76.9363,55.2256 66.5,48.5 Z"/></g>
<g><path style="opacity:0.992" fill="#1d65a2" d="M 31.5,33.5 C 35.0365,35.3502 38.7032,37.0169 42.5,38.5C 61.5413,48.8601 80.5413,59.5268 99.5,70.5C 101.868,71.8382 104.202,73.1715 106.5,74.5C 113.377,79.5019 120.71,84.0019 128.5,88C 132.395,92.0647 136.395,95.898 140.5,99.5C 133.304,96.3279 126.304,92.6613 119.5,88.5C 118.702,88.9569 118.369,89.6236 118.5,90.5C 97.3787,74.6036 74.7121,61.2702 50.5,50.5C 52.2624,50.3573 53.9291,50.6906 55.5,51.5C 56.6956,51.1543 56.6956,50.6543 55.5,50C 46.7929,45.0869 38.4596,39.9203 30.5,34.5C 30.5,33.8333 30.8333,33.5 31.5,33.5 Z"/></g>
<g><path style="opacity:0.043" fill="#4086c3" d="M 3.5,54.5 C 2.92438,59.8094 1.59104,64.8094 -0.5,69.5C -0.5,68.1667 -0.5,66.8333 -0.5,65.5C 0.431442,61.7073 1.76477,58.0406 3.5,54.5 Z"/></g>
<g><path style="opacity:0.039" fill="#448cc9" d="M 14.5,61.5 C 15.7647,62.5145 16.4313,64.0145 16.5,66C 16.4915,67.7067 16.1582,69.2067 15.5,70.5C 14.5233,67.7131 14.19,64.7131 14.5,61.5 Z"/></g>
<g><path style="opacity:0.584" fill="#4e95d2" d="M 15.5,72.5 C 16.2679,73.2625 16.7679,74.2625 17,75.5C 17.4983,78.8168 17.665,82.1501 17.5,85.5C 16.1045,81.4091 15.4379,77.0758 15.5,72.5 Z"/></g>
<g><path style="opacity:1" fill="#64ace9" d="M 35.5,64.5 C 45.3439,72.5827 55.6772,79.916 66.5,86.5C 66.4226,87.7498 65.756,88.5831 64.5,89C 65.9901,90.772 67.6568,90.9387 69.5,89.5C 72.1531,91.145 74.4865,93.145 76.5,95.5C 77.1667,95.1667 77.8333,94.8333 78.5,94.5C 81.6124,96.1837 84.9457,96.8503 88.5,96.5C 88.5,97.5 88.5,98.5 88.5,99.5C 91.0408,99.8499 93.3742,99.8499 95.5,99.5C 96.7335,102.465 96.7335,105.465 95.5,108.5C 90.8636,113.737 86.0302,113.737 81,108.5C 80.2078,106.413 79.0412,104.579 77.5,103C 66.9174,97.4614 56.7507,91.2947 47,84.5C 47.8235,87.8008 49.4902,90.8008 52,93.5C 56.6991,99.0286 61.5324,104.362 66.5,109.5C 66.8333,111.833 68.1667,113.167 70.5,113.5C 70.631,114.239 70.4643,114.906 70,115.5C 69.3457,114.304 68.8457,114.304 68.5,115.5C 70.1526,117.121 72.1526,118.288 74.5,119C 73.8333,119.667 73.1667,120.333 72.5,121C 74.6349,121.759 75.9682,123.259 76.5,125.5C 75.1125,125.807 73.4458,125.807 71.5,125.5C 68.2358,123.906 65.5691,121.573 63.5,118.5C 61.1002,115.097 58.1002,112.43 54.5,110.5C 47.5176,103.186 41.5176,95.1857 36.5,86.5C 36.573,84.9731 35.9063,83.9731 34.5,83.5C 33.3263,82.4863 32.6596,81.153 32.5,79.5C 32.573,77.9731 31.9063,76.9731 30.5,76.5C 28.7073,74.5739 27.7073,72.2406 27.5,69.5C 27.2381,67.4362 26.0714,66.1029 24,65.5C 23.2109,67.7116 23.3775,69.7116 24.5,71.5C 24.9422,75.1545 25.2756,78.8212 25.5,82.5C 25.4318,86.5704 26.4318,90.237 28.5,93.5C 31.7461,102.659 36.0794,111.326 41.5,119.5C 41.427,121.027 42.0937,122.027 43.5,122.5C 43.631,123.239 43.4643,123.906 43,124.5C 42.3457,123.304 41.8457,123.304 41.5,124.5C 44.1191,124.976 46.1191,126.309 47.5,128.5C 46.6446,129.293 45.8113,128.96 45,127.5C 42.9045,128.715 43.0712,129.549 45.5,130C 45.1667,130.333 44.8333,130.667 44.5,131C 45.4123,133.251 46.4123,135.417 47.5,137.5C 45.4268,135.42 43.0934,133.754 40.5,132.5C 37.0994,129.365 34.4327,125.698 32.5,121.5C 32.573,119.973 31.9063,118.973 30.5,118.5C 26.1824,112.862 23.1824,106.529 21.5,99.5C 21.1007,95.8835 20.1007,92.5502 18.5,89.5C 17.5655,88.4324 17.2322,87.099 17.5,85.5C 17.665,82.1501 17.4983,78.8168 17,75.5C 16.7679,74.2625 16.2679,73.2625 15.5,72.5C 15.5,71.8333 15.5,71.1667 15.5,70.5C 16.1582,69.2067 16.4915,67.7067 16.5,66C 16.4313,64.0145 15.7647,62.5145 14.5,61.5C 14.8333,60.8333 15.1667,60.1667 15.5,59.5C 16.404,58.791 16.7373,57.791 16.5,56.5C 19.0163,56.7553 21.3496,57.5886 23.5,59C 26.5799,61.2902 29.7466,63.4569 33,65.5C 33.6708,64.7476 34.5041,64.4142 35.5,64.5 Z"/></g>
<g><path style="opacity:0.176" fill="#2b71ae" d="M 30.5,76.5 C 31.9063,76.9731 32.573,77.9731 32.5,79.5C 31.0937,79.0269 30.427,78.0269 30.5,76.5 Z"/></g>
<g><path style="opacity:0.251" fill="#3c83c0" d="M 27.5,69.5 C 24.9557,66.6935 23.9557,67.3601 24.5,71.5C 23.3775,69.7116 23.2109,67.7116 24,65.5C 26.0714,66.1029 27.2381,67.4362 27.5,69.5 Z"/></g>
<g><path style="opacity:0.455" fill="#4187c4" d="M 8.5,80.5 C 9.08021,84.81 9.41355,89.1434 9.5,93.5C 9.16667,93.5 8.83333,93.5 8.5,93.5C 7.6888,88.9937 7.6888,84.6604 8.5,80.5 Z"/></g>
<g><path style="opacity:0.502" fill="#3e86c3" d="M 25.5,82.5 C 26.9448,85.9365 27.9448,89.6032 28.5,93.5C 26.4318,90.237 25.4318,86.5704 25.5,82.5 Z"/></g>
<g><path style="opacity:0.094" fill="#2e74b1" d="M 34.5,83.5 C 35.9063,83.9731 36.573,84.9731 36.5,86.5C 35.0937,86.0269 34.427,85.0269 34.5,83.5 Z"/></g>
<g><path style="opacity:1" fill="#579edb" d="M 66.5,86.5 C 71.6911,89.506 77.0244,92.3393 82.5,95C 85.4601,94.6799 88.4601,94.6799 91.5,95C 93.3237,95.66 94.657,96.8267 95.5,98.5C 95.5,98.8333 95.5,99.1667 95.5,99.5C 93.3742,99.8499 91.0408,99.8499 88.5,99.5C 88.5,98.5 88.5,97.5 88.5,96.5C 84.9457,96.8503 81.6124,96.1837 78.5,94.5C 77.8333,94.8333 77.1667,95.1667 76.5,95.5C 74.4865,93.145 72.1531,91.145 69.5,89.5C 67.6568,90.9387 65.9901,90.772 64.5,89C 65.756,88.5831 66.4226,87.7498 66.5,86.5 Z"/></g>
<g><path style="opacity:0.251" fill="#3077b3" d="M 18.5,89.5 C 20.1007,92.5502 21.1007,95.8835 21.5,99.5C 19.5902,96.5475 18.5902,93.2142 18.5,89.5 Z"/></g>
<g><path style="opacity:0.643" fill="#397fbc" d="M 10.5,97.5 C 11.7384,99.2143 12.405,101.214 12.5,103.5C 10.9261,101.898 10.2594,99.8984 10.5,97.5 Z"/></g>
<g><path style="opacity:1" fill="#1f65a2" d="M 123.5,94.5 C 128.486,97.8206 132.82,101.821 136.5,106.5C 137.833,108.833 139.167,111.167 140.5,113.5C 138.121,114.567 137.121,113.567 137.5,110.5C 134.016,109.531 131.183,107.531 129,104.5C 128.699,107.507 128.865,110.507 129.5,113.5C 129.167,113.5 128.833,113.5 128.5,113.5C 127.716,106.932 126.049,100.599 123.5,94.5 Z"/></g>
<g><path style="opacity:0.192" fill="#286fac" d="M 12.5,103.5 C 13.6737,104.514 14.3404,105.847 14.5,107.5C 12.8958,106.713 12.2291,105.38 12.5,103.5 Z"/></g>
<g><path style="opacity:0.157" fill="#377fbc" d="M 95.5,98.5 C 96.1174,98.6107 96.6174,98.944 97,99.5C 97.6667,102.167 97.6667,104.833 97,107.5C 96.6174,108.056 96.1174,108.389 95.5,108.5C 96.7335,105.465 96.7335,102.465 95.5,99.5C 95.5,99.1667 95.5,98.8333 95.5,98.5 Z"/></g>
<g><path style="opacity:1" fill="#2971ae" d="M 140.5,113.5 C 140.5,114.167 140.5,114.833 140.5,115.5C 136.542,115.749 132.876,115.082 129.5,113.5C 128.865,110.507 128.699,107.507 129,104.5C 131.183,107.531 134.016,109.531 137.5,110.5C 137.121,113.567 138.121,114.567 140.5,113.5 Z"/></g>
<g><path style="opacity:1" fill="#2f77b4" d="M 140.5,99.5 C 141.167,100.167 141.833,100.833 142.5,101.5C 144.568,104.245 146.234,107.245 147.5,110.5C 143.71,109.568 140.21,107.901 137,105.5C 136.601,105.728 136.435,106.062 136.5,106.5C 132.82,101.821 128.486,97.8206 123.5,94.5C 121.833,93.1667 120.167,91.8333 118.5,90.5C 118.369,89.6236 118.702,88.9569 119.5,88.5C 126.304,92.6613 133.304,96.3279 140.5,99.5 Z"/></g>
<g><path style="opacity:0.482" fill="#3d84c1" d="M 54.5,110.5 C 58.1002,112.43 61.1002,115.097 63.5,118.5C 59.8998,116.57 56.8998,113.903 54.5,110.5 Z"/></g>
<g><path style="opacity:0.506" fill="#3177b3" d="M 66.5,109.5 C 68.1667,110.5 69.5,111.833 70.5,113.5C 68.1667,113.167 66.8333,111.833 66.5,109.5 Z"/></g>
<g><path style="opacity:1" fill="#5ea5e1" d="M 8.5,93.5 C 8.83333,93.5 9.16667,93.5 9.5,93.5C 10.4345,94.5676 10.7678,95.901 10.5,97.5C 10.2594,99.8984 10.9261,101.898 12.5,103.5C 12.2291,105.38 12.8958,106.713 14.5,107.5C 17.373,114.028 21.0397,120.028 25.5,125.5C 25.5106,127.017 26.1772,128.184 27.5,129C 26.8971,130.825 26.2304,132.659 25.5,134.5C 24.1502,133.05 22.4835,132.383 20.5,132.5C 12.6452,125.471 7.31184,116.804 4.5,106.5C 5.55847,107.6 6.3918,108.934 7,110.5C 6.95883,104.898 7.45883,99.2315 8.5,93.5 Z"/></g>
<g><path style="opacity:1" fill="#3c83c0" d="M 147.5,110.5 C 148.461,112.265 148.795,114.265 148.5,116.5C 148.25,118.674 147.25,120.341 145.5,121.5C 144.526,119.915 143.026,118.915 141,118.5C 140.517,117.552 140.351,116.552 140.5,115.5C 140.5,114.833 140.5,114.167 140.5,113.5C 139.167,111.167 137.833,108.833 136.5,106.5C 136.435,106.062 136.601,105.728 137,105.5C 140.21,107.901 143.71,109.568 147.5,110.5 Z"/></g>
<g><path style="opacity:1" fill="#5ca4e1" d="M 140.5,122.5 C 139.791,123.404 138.791,123.737 137.5,123.5C 133.785,123.577 130.119,123.244 126.5,122.5C 121.774,121.652 117.108,120.485 112.5,119C 110.392,116.984 110.058,114.817 111.5,112.5C 113.455,111.677 115.455,111.51 117.5,112C 124.508,117.174 132.174,120.674 140.5,122.5 Z"/></g>
<g><path style="opacity:1" fill="#4f97d4" d="M 128.5,113.5 C 128.833,113.5 129.167,113.5 129.5,113.5C 132.876,115.082 136.542,115.749 140.5,115.5C 140.351,116.552 140.517,117.552 141,118.5C 143.026,118.915 144.526,119.915 145.5,121.5C 143.883,122.038 142.216,122.371 140.5,122.5C 132.174,120.674 124.508,117.174 117.5,112C 115.455,111.51 113.455,111.677 111.5,112.5C 112.315,111.163 113.482,110.163 115,109.5C 119.286,111.53 123.786,112.863 128.5,113.5 Z"/></g>
<g><path style="opacity:0.102" fill="#2d73b0" d="M 30.5,118.5 C 31.9063,118.973 32.573,119.973 32.5,121.5C 31.0937,121.027 30.427,120.027 30.5,118.5 Z"/></g>
<g><path style="opacity:0.604" fill="#347ab7" d="M 41.5,119.5 C 42.9063,119.973 43.573,120.973 43.5,122.5C 42.0937,122.027 41.427,121.027 41.5,119.5 Z"/></g>
<g><path style="opacity:1" fill="#3279b6" d="M 126.5,122.5 C 130.119,123.244 133.785,123.577 137.5,123.5C 136.5,127.499 135.5,131.499 134.5,135.5C 133.5,137.167 132.167,138.5 130.5,139.5C 131.259,137.564 132.259,135.731 133.5,134C 131.811,132.137 130.478,129.97 129.5,127.5C 127.173,130.161 124.84,132.828 122.5,135.5C 121.167,135.5 119.833,135.5 118.5,135.5C 121.429,131.306 124.095,126.973 126.5,122.5 Z"/></g>
<g><path style="opacity:1" fill="#175d99" d="M 145.5,121.5 C 144.928,123.255 144.094,124.922 143,126.5C 140.613,129.957 137.78,132.957 134.5,135.5C 135.5,131.499 136.5,127.499 137.5,123.5C 138.791,123.737 139.791,123.404 140.5,122.5C 142.216,122.371 143.883,122.038 145.5,121.5 Z"/></g>
<g><path style="opacity:1" fill="#5ba3e0" d="M 70.5,113.5 C 79.7783,121.774 90.1116,128.44 101.5,133.5C 104.437,135.589 107.77,137.089 111.5,138C 110.978,138.561 110.645,139.228 110.5,140C 112.018,141.351 113.351,142.851 114.5,144.5C 111.43,144.632 108.43,144.299 105.5,143.5C 92.4303,140.634 81.097,134.634 71.5,125.5C 73.4458,125.807 75.1125,125.807 76.5,125.5C 75.9682,123.259 74.6349,121.759 72.5,121C 73.1667,120.333 73.8333,119.667 74.5,119C 72.1526,118.288 70.1526,117.121 68.5,115.5C 68.8457,114.304 69.3457,114.304 70,115.5C 70.4643,114.906 70.631,114.239 70.5,113.5 Z"/></g>
<g><path style="opacity:1" fill="#4087c4" d="M 130.5,139.5 C 128.777,141.218 126.777,142.551 124.5,143.5C 127.59,139.86 126.923,137.194 122.5,135.5C 124.84,132.828 127.173,130.161 129.5,127.5C 130.478,129.97 131.811,132.137 133.5,134C 132.259,135.731 131.259,137.564 130.5,139.5 Z"/></g>
<g><path style="opacity:0.031" fill="#3b82bf" d="M 40.5,132.5 C 43.0934,133.754 45.4268,135.42 47.5,137.5C 47.5,137.833 47.5,138.167 47.5,138.5C 44.5726,137.243 42.2393,135.243 40.5,132.5 Z"/></g>
<g><path style="opacity:0.762" fill="#063a68" d="M 179.5,135.5 C 183.833,135.5 188.167,135.5 192.5,135.5C 192.5,136.5 192.5,137.5 192.5,138.5C 188.5,138.5 184.5,138.5 180.5,138.5C 180.33,139.822 180.663,140.989 181.5,142C 184.758,142.212 187.924,142.712 191,143.5C 193.155,146.54 192.988,149.373 190.5,152C 186.179,152.499 181.846,152.666 177.5,152.5C 177.5,151.5 177.5,150.5 177.5,149.5C 181.182,149.665 184.848,149.499 188.5,149C 189.833,148 189.833,147 188.5,146C 185.5,145.667 182.5,145.333 179.5,145C 176.888,141.836 176.888,138.669 179.5,135.5 Z"/></g>
<g><path style="opacity:0.72" fill="#063a68" d="M 196.5,135.5 C 201.5,135.5 206.5,135.5 211.5,135.5C 211.5,136.5 211.5,137.5 211.5,138.5C 206.5,138.5 201.5,138.5 196.5,138.5C 196.5,137.5 196.5,136.5 196.5,135.5 Z"/></g>
<g><path style="opacity:0.787" fill="#063a68" d="M 215.5,135.5 C 216.552,135.351 217.552,135.517 218.5,136C 221.333,139.5 224.167,143 227,146.5C 227.499,142.848 227.665,139.182 227.5,135.5C 228.5,135.5 229.5,135.5 230.5,135.5C 230.5,141.167 230.5,146.833 230.5,152.5C 229.448,152.649 228.448,152.483 227.5,152C 224.784,148.739 221.951,145.572 219,142.5C 218.502,145.817 218.335,149.15 218.5,152.5C 217.5,152.5 216.5,152.5 215.5,152.5C 215.5,146.833 215.5,141.167 215.5,135.5 Z"/></g>
<g><path style="opacity:0.762" fill="#063a68" d="M 236.5,135.5 C 240.833,135.5 245.167,135.5 249.5,135.5C 249.5,136.5 249.5,137.5 249.5,138.5C 245.5,138.5 241.5,138.5 237.5,138.5C 237.33,139.822 237.663,140.989 238.5,142C 241.758,142.212 244.924,142.712 248,143.5C 250.155,146.54 249.988,149.373 247.5,152C 243.179,152.499 238.846,152.666 234.5,152.5C 234.5,151.5 234.5,150.5 234.5,149.5C 238.182,149.665 241.848,149.499 245.5,149C 246.833,148 246.833,147 245.5,146C 242.5,145.667 239.5,145.333 236.5,145C 233.888,141.836 233.888,138.669 236.5,135.5 Z"/></g>
<g><path style="opacity:0.738" fill="#063a68" d="M 257.5,135.5 C 267.658,134.157 271.825,138.49 270,148.5C 264.667,153.833 259.333,153.833 254,148.5C 252.539,143.326 253.706,138.993 257.5,135.5 Z M 259.5,138.5 C 267.818,138.987 269.485,142.487 264.5,149C 256.088,148.812 254.421,145.312 259.5,138.5 Z"/></g>
<g><path style="opacity:0.75" fill="#063a68" d="M 274.5,135.5 C 279.179,135.334 283.845,135.501 288.5,136C 291.453,142.079 289.453,145.413 282.5,146C 284.996,147.08 287.33,148.414 289.5,150C 290.833,150.667 290.833,151.333 289.5,152C 285.461,151.655 281.794,150.155 278.5,147.5C 277.548,149.045 277.215,150.712 277.5,152.5C 276.5,152.5 275.5,152.5 274.5,152.5C 274.5,149.167 274.5,145.833 274.5,142.5C 278.182,142.665 281.848,142.499 285.5,142C 286.337,140.989 286.67,139.822 286.5,138.5C 282.818,138.665 279.152,138.499 275.5,138C 274.748,137.329 274.414,136.496 274.5,135.5 Z"/></g>
<g><path style="opacity:0.762" fill="#063a68" d="M 296.5,135.5 C 300.833,135.5 305.167,135.5 309.5,135.5C 309.5,136.5 309.5,137.5 309.5,138.5C 305.5,138.5 301.5,138.5 297.5,138.5C 297.33,139.822 297.663,140.989 298.5,142C 301.758,142.212 304.924,142.712 308,143.5C 310.155,146.54 309.988,149.373 307.5,152C 303.179,152.499 298.846,152.666 294.5,152.5C 294.5,151.5 294.5,150.5 294.5,149.5C 298.182,149.665 301.848,149.499 305.5,149C 306.833,148 306.833,147 305.5,146C 302.5,145.667 299.5,145.333 296.5,145C 293.888,141.836 293.888,138.669 296.5,135.5 Z"/></g>
<g><path style="opacity:0.732" fill="#063a68" d="M 332.5,135.5 C 336.167,135.5 339.833,135.5 343.5,135.5C 343.5,136.5 343.5,137.5 343.5,138.5C 340.482,138.335 337.482,138.502 334.5,139C 330.5,142.333 330.5,145.667 334.5,149C 337.482,149.498 340.482,149.665 343.5,149.5C 343.5,150.5 343.5,151.5 343.5,152.5C 332.351,154.843 327.518,150.51 329,139.5C 330.376,138.295 331.542,136.962 332.5,135.5 Z"/></g>
<g><path style="opacity:0.812" fill="#063a68" d="M 347.5,135.5 C 348.5,135.5 349.5,135.5 350.5,135.5C 350.5,140.167 350.5,144.833 350.5,149.5C 354.5,149.5 358.5,149.5 362.5,149.5C 362.5,150.5 362.5,151.5 362.5,152.5C 357.5,152.5 352.5,152.5 347.5,152.5C 347.5,146.833 347.5,141.167 347.5,135.5 Z"/></g>
<g><path style="opacity:0.738" fill="#063a68" d="M 370.5,135.5 C 380.658,134.157 384.825,138.49 383,148.5C 377.667,153.833 372.333,153.833 367,148.5C 365.539,143.326 366.706,138.993 370.5,135.5 Z M 372.5,138.5 C 380.818,138.987 382.485,142.487 377.5,149C 369.088,148.812 367.421,145.312 372.5,138.5 Z"/></g>
<g><path style="opacity:0.719" fill="#063a68" d="M 387.5,135.5 C 388.5,135.5 389.5,135.5 390.5,135.5C 390.335,139.182 390.501,142.848 391,146.5C 393.367,149.932 396.034,150.265 399,147.5C 399.499,143.514 399.666,139.514 399.5,135.5C 400.822,135.33 401.989,135.663 403,136.5C 404.409,142.354 403.243,147.521 399.5,152C 394.269,153.724 390.435,152.224 388,147.5C 387.501,143.514 387.334,139.514 387.5,135.5 Z"/></g>
<g><path style="opacity:0.76" fill="#063a68" d="M 407.5,135.5 C 411.637,135.146 415.637,135.646 419.5,137C 423.5,141.667 423.5,146.333 419.5,151C 415.637,152.354 411.637,152.854 407.5,152.5C 407.174,148.116 407.508,143.783 408.5,139.5C 409.086,139.709 409.586,140.043 410,140.5C 410.498,143.482 410.665,146.482 410.5,149.5C 415.406,150.694 418.406,148.861 419.5,144C 419.01,142.018 418.01,140.351 416.5,139C 413.518,138.502 410.518,138.335 407.5,138.5C 407.5,137.5 407.5,136.5 407.5,135.5 Z"/></g>
<g><path style="opacity:0.762" fill="#063a68" d="M 428.5,135.5 C 432.833,135.5 437.167,135.5 441.5,135.5C 441.5,136.5 441.5,137.5 441.5,138.5C 437.5,138.5 433.5,138.5 429.5,138.5C 429.33,139.822 429.663,140.989 430.5,142C 433.758,142.212 436.924,142.712 440,143.5C 442.155,146.54 441.988,149.373 439.5,152C 435.179,152.499 430.846,152.666 426.5,152.5C 426.5,151.5 426.5,150.5 426.5,149.5C 430.182,149.665 433.848,149.499 437.5,149C 438.833,148 438.833,147 437.5,146C 434.5,145.667 431.5,145.333 428.5,145C 425.888,141.836 425.888,138.669 428.5,135.5 Z"/></g>
<g><path style="opacity:0.715" fill="#063a68" d="M 466.5,135.5 C 467.675,135.281 468.675,135.614 469.5,136.5C 472.076,141.646 474.076,146.979 475.5,152.5C 474.178,152.67 473.011,152.337 472,151.5C 470.667,148.167 469.333,144.833 468,141.5C 466.226,144.715 464.726,148.048 463.5,151.5C 462.675,152.386 461.675,152.719 460.5,152.5C 461.704,146.555 463.704,140.889 466.5,135.5 Z"/></g>
<g><path style="opacity:0.787" fill="#063a68" d="M 479.5,135.5 C 480.552,135.351 481.552,135.517 482.5,136C 485.333,139.5 488.167,143 491,146.5C 491.499,142.848 491.665,139.182 491.5,135.5C 492.5,135.5 493.5,135.5 494.5,135.5C 494.5,141.167 494.5,146.833 494.5,152.5C 493.448,152.649 492.448,152.483 491.5,152C 488.784,148.739 485.951,145.572 483,142.5C 482.502,145.817 482.335,149.15 482.5,152.5C 481.5,152.5 480.5,152.5 479.5,152.5C 479.5,146.833 479.5,141.167 479.5,135.5 Z"/></g>
<g><path style="opacity:0.76" fill="#063a68" d="M 498.5,135.5 C 502.637,135.146 506.637,135.646 510.5,137C 514.5,141.667 514.5,146.333 510.5,151C 506.637,152.354 502.637,152.854 498.5,152.5C 498.174,148.116 498.508,143.783 499.5,139.5C 500.086,139.709 500.586,140.043 501,140.5C 501.498,143.482 501.665,146.482 501.5,149.5C 506.406,150.694 509.406,148.861 510.5,144C 510.01,142.018 509.01,140.351 507.5,139C 504.518,138.502 501.518,138.335 498.5,138.5C 498.5,137.5 498.5,136.5 498.5,135.5 Z"/></g>
<g><path style="opacity:0.752" fill="#063a68" d="M 527.5,135.5 C 531.846,135.334 536.179,135.501 540.5,136C 541.833,136.667 541.833,137.333 540.5,138C 536.313,138.071 532.313,138.738 528.5,140C 531.373,142.092 534.707,143.092 538.5,143C 542.5,146 542.5,149 538.5,152C 534.129,152.828 529.795,152.661 525.5,151.5C 525.709,150.914 526.043,150.414 526.5,150C 530.152,149.501 533.818,149.335 537.5,149.5C 537.67,148.178 537.337,147.011 536.5,146C 532.892,145.974 529.558,145.141 526.5,143.5C 525.025,140.557 525.358,137.891 527.5,135.5 Z"/></g>
<g><path style="opacity:0.721" fill="#063a68" d="M 544.5,135.5 C 550.021,135.054 555.355,135.554 560.5,137C 555.681,138.606 550.681,138.939 545.5,138C 544.748,137.329 544.414,136.496 544.5,135.5 Z"/></g>
<g><path style="opacity:0.75" fill="#063a68" d="M 563.5,135.5 C 568.179,135.334 572.845,135.501 577.5,136C 580.453,142.079 578.453,145.413 571.5,146C 573.996,147.08 576.33,148.414 578.5,150C 579.833,150.667 579.833,151.333 578.5,152C 574.461,151.655 570.794,150.155 567.5,147.5C 566.548,149.045 566.215,150.712 566.5,152.5C 565.5,152.5 564.5,152.5 563.5,152.5C 563.5,149.167 563.5,145.833 563.5,142.5C 567.182,142.665 570.848,142.499 574.5,142C 575.337,140.989 575.67,139.822 575.5,138.5C 571.818,138.665 568.152,138.499 564.5,138C 563.748,137.329 563.414,136.496 563.5,135.5 Z"/></g>
<g><path style="opacity:0.73" fill="#063a68" d="M 583.5,135.5 C 584.675,135.281 585.675,135.614 586.5,136.5C 587.726,139.952 589.226,143.285 591,146.5C 592.333,143.167 593.667,139.833 595,136.5C 596.011,135.663 597.178,135.33 598.5,135.5C 597.068,141.693 594.568,147.359 591,152.5C 586.923,147.666 584.423,141.999 583.5,135.5 Z"/></g>
<g><path style="opacity:0.6" fill="#063a68" d="M 602.5,135.5 C 605.957,135.667 606.29,136.667 603.5,138.5C 602.614,137.675 602.281,136.675 602.5,135.5 Z"/></g>
<g><path style="opacity:0.732" fill="#063a68" d="M 613.5,135.5 C 617.167,135.5 620.833,135.5 624.5,135.5C 624.5,136.5 624.5,137.5 624.5,138.5C 621.482,138.335 618.482,138.502 615.5,139C 611.5,142.333 611.5,145.667 615.5,149C 618.482,149.498 621.482,149.665 624.5,149.5C 624.5,150.5 624.5,151.5 624.5,152.5C 613.351,154.843 608.518,150.51 610,139.5C 611.376,138.295 612.542,136.962 613.5,135.5 Z"/></g>
<g><path style="opacity:0.72" fill="#063a68" d="M 628.5,135.5 C 633.5,135.5 638.5,135.5 643.5,135.5C 643.5,136.5 643.5,137.5 643.5,138.5C 638.5,138.5 633.5,138.5 628.5,138.5C 628.5,137.5 628.5,136.5 628.5,135.5 Z"/></g>
<g><path style="opacity:0.762" fill="#063a68" d="M 649.5,135.5 C 653.833,135.5 658.167,135.5 662.5,135.5C 662.5,136.5 662.5,137.5 662.5,138.5C 658.5,138.5 654.5,138.5 650.5,138.5C 650.33,139.822 650.663,140.989 651.5,142C 654.758,142.212 657.924,142.712 661,143.5C 663.155,146.54 662.988,149.373 660.5,152C 656.179,152.499 651.846,152.666 647.5,152.5C 647.5,151.5 647.5,150.5 647.5,149.5C 651.182,149.665 654.848,149.499 658.5,149C 659.833,148 659.833,147 658.5,146C 655.5,145.667 652.5,145.333 649.5,145C 646.888,141.836 646.888,138.669 649.5,135.5 Z"/></g>
<g><path style="opacity:0.812" fill="#063a68" d="M 674.5,135.5 C 675.5,135.5 676.5,135.5 677.5,135.5C 677.5,140.167 677.5,144.833 677.5,149.5C 681.5,149.5 685.5,149.5 689.5,149.5C 689.5,150.5 689.5,151.5 689.5,152.5C 684.5,152.5 679.5,152.5 674.5,152.5C 674.5,146.833 674.5,141.167 674.5,135.5 Z"/></g>
<g><path style="opacity:0.709" fill="#063a68" d="M 699.5,135.5 C 700.822,135.33 701.989,135.663 703,136.5C 705.038,141.408 707.205,146.241 709.5,151C 708.437,152.188 707.103,152.688 705.5,152.5C 704.554,148.608 703.054,144.941 701,141.5C 699.667,144.833 698.333,148.167 697,151.5C 695.989,152.337 694.822,152.67 693.5,152.5C 695.214,146.737 697.214,141.07 699.5,135.5 Z"/></g>
<g><path style="opacity:0.772" fill="#063a68" d="M 727.5,136.5 C 727.5,138.833 727.5,141.167 727.5,143.5C 726.167,143.833 726.167,144.167 727.5,144.5C 727.5,146.5 727.5,148.5 727.5,150.5C 722.753,152.71 717.753,153.044 712.5,151.5C 712.709,150.914 713.043,150.414 713.5,150C 717.152,149.501 720.818,149.335 724.5,149.5C 724.67,148.178 724.337,147.011 723.5,146C 719.848,145.501 716.182,145.335 712.5,145.5C 712.5,144.5 712.5,143.5 712.5,142.5C 716.182,142.665 719.848,142.499 723.5,142C 724.337,140.989 724.67,139.822 724.5,138.5C 720.818,138.665 717.152,138.499 713.5,138C 713.043,137.586 712.709,137.086 712.5,136.5C 717.551,135.221 722.551,135.221 727.5,136.5 Z"/></g>
<g><path style="opacity:1" fill="#4f97d4" d="M 101.5,133.5 C 107.031,135.125 112.697,135.791 118.5,135.5C 119.833,135.5 121.167,135.5 122.5,135.5C 126.923,137.194 127.59,139.86 124.5,143.5C 122.901,143.232 121.568,143.566 120.5,144.5C 118.5,144.5 116.5,144.5 114.5,144.5C 113.351,142.851 112.018,141.351 110.5,140C 110.645,139.228 110.978,138.561 111.5,138C 107.77,137.089 104.437,135.589 101.5,133.5 Z"/></g>
<g><path style="opacity:1" fill="#5ea6e3" d="M 43.5,122.5 C 50.243,129.906 57.9096,136.239 66.5,141.5C 67.9911,142.913 68.6577,144.413 68.5,146C 70.9199,145.012 73.2533,145.345 75.5,147C 74.8333,147.333 74.1667,147.667 73.5,148C 74.13,149.892 75.13,151.559 76.5,153C 72.5983,153.738 68.9316,153.072 65.5,151C 61.6155,148.275 57.6155,145.775 53.5,143.5C 52.8333,143.5 52.1667,143.5 51.5,143.5C 50.1667,141.833 48.8333,140.167 47.5,138.5C 47.5,138.167 47.5,137.833 47.5,137.5C 46.4123,135.417 45.4123,133.251 44.5,131C 44.8333,130.667 45.1667,130.333 45.5,130C 43.0712,129.549 42.9045,128.715 45,127.5C 45.8113,128.96 46.6446,129.293 47.5,128.5C 46.1191,126.309 44.1191,124.976 41.5,124.5C 41.8457,123.304 42.3457,123.304 43,124.5C 43.4643,123.906 43.631,123.239 43.5,122.5 Z"/></g>
<g><path style="opacity:0.76" fill="#063a68" d="M 602.5,139.5 C 603.496,139.414 604.329,139.748 605,140.5C 605.499,144.486 605.666,148.486 605.5,152.5C 604.5,152.5 603.5,152.5 602.5,152.5C 602.5,148.167 602.5,143.833 602.5,139.5 Z"/></g>
<g><path style="opacity:0.775" fill="#063a68" d="M 196.5,142.5 C 201.5,142.5 206.5,142.5 211.5,142.5C 211.5,143.5 211.5,144.5 211.5,145.5C 206.5,145.5 201.5,145.5 196.5,145.5C 196.5,144.5 196.5,143.5 196.5,142.5 Z"/></g>
<g><path style="opacity:0.755" fill="#063a68" d="M 544.5,142.5 C 550.021,142.054 555.355,142.554 560.5,144C 555.355,145.446 550.021,145.946 544.5,145.5C 544.5,144.5 544.5,143.5 544.5,142.5 Z"/></g>
<g><path style="opacity:0.775" fill="#063a68" d="M 628.5,142.5 C 633.5,142.5 638.5,142.5 643.5,142.5C 643.5,143.5 643.5,144.5 643.5,145.5C 638.5,145.5 633.5,145.5 628.5,145.5C 628.5,144.5 628.5,143.5 628.5,142.5 Z"/></g>
<g><path style="opacity:0.999" fill="#569dda" d="M 25.5,125.5 C 32.8071,133.475 41.4738,139.475 51.5,143.5C 51.5,143.833 51.5,144.167 51.5,144.5C 53.3819,145.751 55.3819,146.918 57.5,148C 55.8603,150.776 56.527,152.776 59.5,154C 59.2716,154.399 58.9382,154.565 58.5,154.5C 55.3061,153.242 51.9728,152.576 48.5,152.5C 37.3972,148.284 28.0639,141.618 20.5,132.5C 22.4835,132.383 24.1502,133.05 25.5,134.5C 26.2304,132.659 26.8971,130.825 27.5,129C 26.1772,128.184 25.5106,127.017 25.5,125.5 Z"/></g>
<g><path style="opacity:0.094" fill="#1d64a1" d="M 124.5,143.5 C 122.853,145.326 120.853,146.66 118.5,147.5C 119.167,146.5 119.833,145.5 120.5,144.5C 121.568,143.566 122.901,143.232 124.5,143.5 Z"/></g>
<g><path style="opacity:0.012" fill="#1d64a1" d="M 118.5,147.5 C 115.753,150.207 112.42,151.873 108.5,152.5C 111.515,150.326 114.849,148.659 118.5,147.5 Z"/></g>
<g><path style="opacity:0.775" fill="#063a68" d="M 196.5,149.5 C 201.5,149.5 206.5,149.5 211.5,149.5C 211.5,150.5 211.5,151.5 211.5,152.5C 206.5,152.5 201.5,152.5 196.5,152.5C 196.5,151.5 196.5,150.5 196.5,149.5 Z"/></g>
<g><path style="opacity:0.697" fill="#063a68" d="M 313.5,149.5 C 314.496,149.414 315.329,149.748 316,150.5C 316.495,152.473 316.662,154.473 316.5,156.5C 315.5,156.5 314.5,156.5 313.5,156.5C 313.5,154.167 313.5,151.833 313.5,149.5 Z"/></g>
<g><path style="opacity:0.697" fill="#063a68" d="M 445.5,149.5 C 446.496,149.414 447.329,149.748 448,150.5C 448.495,152.473 448.662,154.473 448.5,156.5C 447.5,156.5 446.5,156.5 445.5,156.5C 445.5,154.167 445.5,151.833 445.5,149.5 Z"/></g>
<g><path style="opacity:0.776" fill="#063a68" d="M 545.5,149.5 C 550.691,149.058 555.691,149.558 560.5,151C 557.861,152.118 555.027,152.618 552,152.5C 549.5,152.167 547,151.833 544.5,151.5C 544.863,150.817 545.196,150.15 545.5,149.5 Z"/></g>
<g><path style="opacity:0.775" fill="#063a68" d="M 628.5,149.5 C 633.5,149.5 638.5,149.5 643.5,149.5C 643.5,150.5 643.5,151.5 643.5,152.5C 638.5,152.5 633.5,152.5 628.5,152.5C 628.5,151.5 628.5,150.5 628.5,149.5 Z"/></g>
<g><path style="opacity:1" fill="#4c94d1" d="M 66.5,141.5 C 79.3248,148.49 92.3248,149.157 105.5,143.5C 108.43,144.299 111.43,144.632 114.5,144.5C 116.5,144.5 118.5,144.5 120.5,144.5C 119.833,145.5 119.167,146.5 118.5,147.5C 114.849,148.659 111.515,150.326 108.5,152.5C 100.606,154.056 92.9398,156.056 85.5,158.5C 85.1667,158.5 84.8333,158.5 84.5,158.5C 75.7016,158.074 67.035,156.741 58.5,154.5C 58.9382,154.565 59.2716,154.399 59.5,154C 56.527,152.776 55.8603,150.776 57.5,148C 55.3819,146.918 53.3819,145.751 51.5,144.5C 52.4916,144.672 53.1583,144.338 53.5,143.5C 57.6155,145.775 61.6155,148.275 65.5,151C 68.9316,153.072 72.5983,153.738 76.5,153C 75.13,151.559 74.13,149.892 73.5,148C 74.1667,147.667 74.8333,147.333 75.5,147C 73.2533,145.345 70.9199,145.012 68.5,146C 68.6577,144.413 67.9911,142.913 66.5,141.5 Z"/></g>
<g><path style="opacity:0.737" fill="#387fbc" d="M 48.5,152.5 C 51.9728,152.576 55.3061,153.242 58.5,154.5C 67.035,156.741 75.7016,158.074 84.5,158.5C 78.5,158.5 72.5,158.5 66.5,158.5C 60.3163,157.105 54.3163,155.105 48.5,152.5 Z"/></g>
<g><path style="opacity:0.094" fill="#3078b5" d="M 108.5,152.5 C 102.988,154.961 97.3217,156.961 91.5,158.5C 89.5,158.5 87.5,158.5 85.5,158.5C 92.9398,156.056 100.606,154.056 108.5,152.5 Z"/></g>
</svg>
